Coordinates
version=1
nRows=9
nColumns=63
inDegrees=yes

Units are S.I. units (second, meters, Newtons, ...)
If the header above contains a line with 'inDegrees', this indicates whether rotational values are in degrees (yes) or radians (no).

endheader
time	pelvis_tilt	pelvis_list	pelvis_rotation	pelvis_tx	pelvis_ty	pelvis_tz	hip_flexion_r	hip_adduction_r	hip_rotation_r	knee_angle_r	knee_angle_r_beta	ankle_angle_r	subtalar_angle_r	mtp_angle_r	hip_flexion_l	hip_adduction_l	hip_rotation_l	knee_angle_l	knee_angle_l_beta	ankle_angle_l	subtalar_angle_l	mtp_angle_l	L5_S1_Flex_Ext	L5_S1_Lat_Bending	L5_S1_axial_rotation	L4_L5_Flex_Ext	L4_L5_Lat_Bending	L4_L5_axial_rotation	L3_L4_Flex_Ext	L3_L4_Lat_Bending	L3_L4_axial_rotation	L2_L3_Flex_Ext	L2_L3_Lat_Bending	L2_L3_axial_rotation	L1_L2_Flex_Ext	L1_L2_Lat_Bending	L1_L2_axial_rotation	L1_T12_Flex_Ext	L1_T12_Lat_Bending	L1_T12_axial_rotation	Abs_r3	Abs_r2	Abs_r1	Abs_t1	Abs_t2	neck_flexion	neck_bending	neck_rotation	arm_flex_r	arm_add_r	arm_rot_r	elbow_flex_r	pro_sup_r	wrist_flex_r	wrist_dev_r	arm_flex_l	arm_add_l	arm_rot_l	elbow_flex_l	pro_sup_l	wrist_flex_l	wrist_dev_l
2.627119	-2.809399	-1.138343	85.095674	0.239822	0.756210	0.741426	5.544969	-3.249299	-15.907002	13.392458	0.233742	27.325387	18.341038	0.000000	3.207515	0.670509	10.625440	9.866452	0.172202	12.260855	-17.726606	0.000000	0.083945	0.908670	1.185178	0.155895	1.208532	1.259252	0.137913	2.209341	1.259252	0.095941	2.209341	1.037031	0.077951	1.852961	0.962957	0.047966	1.407530	0.888884	0.599612	10.279061	6.591606	0.000000	0.000000	23.425407	-2.650486	17.166416	-9.383419	-23.832355	15.541556	47.423174	80.005922	0.046215	2.889116	162.095384	-41.462986	84.882406	50.692733	70.199627	-13.025693	13.623809
2.644068	-2.989460	-0.773270	85.655639	0.239780	0.756191	0.740641	5.146955	-3.466003	-16.308748	13.461545	0.234948	27.828466	18.298276	0.000000	2.999481	0.891251	11.090452	10.080180	0.175932	12.550727	-17.512460	0.000000	0.077883	0.886993	1.187152	0.144636	1.179700	1.261349	0.127953	2.156634	1.261349	0.089012	2.156634	1.038758	0.072322	1.808755	0.964561	0.044502	1.373952	0.890364	0.556308	10.033838	6.602584	0.000000	0.000000	23.406283	-2.653965	16.797956	-9.719467	-23.721600	15.723060	47.986951	81.838876	-1.036652	3.067167	159.697125	-44.315743	83.661634	54.762580	64.949883	-15.900455	13.486999
2.661017	-3.144157	-0.390124	86.227911	0.239694	0.756211	0.739896	4.688646	-3.644040	-16.702184	13.463256	0.234978	28.306343	18.254231	0.000000	2.774253	1.083199	11.466741	10.305208	0.179860	12.854602	-17.218007	0.000000	0.070587	0.871388	1.170351	0.131087	1.158947	1.243498	0.115968	2.118694	1.243498	0.080674	2.118694	1.024057	0.065547	1.776935	0.950910	0.040334	1.349781	0.877763	0.504197	9.857319	6.509142	0.000000	0.000000	23.430382	-2.626727	16.556693	-9.974049	-23.730237	16.254634	48.529101	83.519047	-2.135180	3.165093	156.887272	-47.446365	82.316225	58.755520	60.604167	-17.912837	13.428522
2.677966	-3.279492	-0.010424	86.800304	0.239542	0.756262	0.739217	4.200393	-3.792534	-17.088395	13.413043	0.234102	28.746555	18.210707	0.000000	2.554307	1.252711	11.736044	10.543037	0.184011	13.161436	-16.832827	0.000000	0.064026	0.860994	1.130601	0.118903	1.145122	1.201264	0.105189	2.093421	1.201264	0.073176	2.093421	0.989276	0.059455	1.755739	0.918613	0.036585	1.333680	0.847951	0.457334	9.739738	6.288064	0.000000	0.000000	23.480937	-2.522078	16.451155	-10.080565	-23.855288	17.185162	48.990095	85.041641	-3.174957	3.155425	153.777097	-50.750753	81.021044	62.578607	56.995341	-18.876677	13.534973
2.694915	-3.370396	0.361209	87.346992	0.239345	0.756339	0.738598	3.694540	-3.886175	-17.433495	13.327208	0.232604	29.135563	18.168052	0.000000	2.337335	1.372621	11.890226	10.789720	0.188316	13.484247	-16.372128	0.000000	0.056733	0.859214	1.065452	0.105359	1.142755	1.132043	0.093206	2.089094	1.132043	0.064840	2.089094	0.932270	0.052682	1.752110	0.865680	0.032417	1.330923	0.799089	0.405237	9.719606	5.925723	0.000000	0.000000	23.524001	-2.309994	16.575490	-10.064842	-24.068490	18.321233	49.426330	86.292450	-4.012112	3.188370	150.578561	-54.207795	79.965595	66.177531	54.288045	-19.066437	13.547377
2.711864	-3.451893	0.711735	87.868335	0.239115	0.756407	0.738053	3.189254	-3.961687	-17.761038	13.213400	0.230617	29.488798	18.132513	0.000000	2.136776	1.477768	11.931726	11.037885	0.192647	13.810029	-15.824970	0.000000	0.049555	0.860122	0.971579	0.092029	1.143963	1.032303	0.081414	2.091302	1.032303	0.056636	2.091302	0.850132	0.046017	1.753962	0.789408	0.028316	1.332330	0.728684	0.353966	9.729876	5.403630	0.000000	0.000000	23.591192	-1.960638	16.849939	-9.860261	-24.344623	19.721206	49.778696	87.416422	-4.757119	3.152724	147.271854	-57.637208	78.928657	69.469891	52.976598	-18.195908	13.732659
2.728814	-3.523843	1.034315	88.337555	0.238855	0.756467	0.737581	2.699441	-4.021661	-18.049644	13.085296	0.228381	29.792438	18.100292	0.000000	1.951638	1.569883	11.882137	11.277969	0.196838	14.142286	-15.230423	0.000000	0.042185	0.863393	0.858389	0.078341	1.148313	0.912038	0.069305	2.099254	0.912038	0.048213	2.099254	0.751090	0.039173	1.760631	0.697441	0.024104	1.337396	0.643791	0.301321	9.766874	4.774099	0.000000	0.000000	23.701767	-1.534363	17.234344	-9.455345	-24.712800	21.461030	50.042120	88.226569	-5.489170	2.980361	143.836785	-60.889150	77.796793	72.400746	52.817278	-16.299086	14.118892
2.745763	-3.615190	1.313806	88.739869	0.238606	0.756468	0.737173	2.256318	-4.101446	-18.325617	12.967584	0.226327	30.064001	18.089908	0.000000	1.791029	1.681016	11.791222	11.491067	0.200557	14.435576	-14.685275	0.000000	0.036921	0.863269	0.744048	0.068566	1.148147	0.790551	0.060657	2.098952	0.790551	0.042197	2.098952	0.651042	0.034285	1.760378	0.604539	0.021097	1.337203	0.558036	0.263722	9.765468	4.138173	0.000000	0.000000	23.900389	-1.131276	17.519977	-8.959213	-25.102697	23.316435	50.238311	88.758554	-6.346219	2.660848	140.370172	-63.720644	76.665512	74.913995	54.052747	-13.778449	14.809844
2.762712	-3.711597	1.541388	89.082134	0.238366	0.756423	0.736817	1.860415	-4.182727	-18.571923	12.846693	0.224217	30.279208	18.086274	0.000000	1.664016	1.789506	11.623326	11.680920	0.203871	14.727614	-14.104147	0.000000	0.034209	0.860688	0.624836	0.063530	1.144715	0.663888	0.056202	2.092677	0.663888	0.039098	2.092677	0.546732	0.031767	1.755115	0.507679	0.019547	1.333206	0.468627	0.244353	9.736275	3.475151	0.000000	0.000000	24.173296	-0.737744	17.805197	-8.286127	-25.570231	25.477398	50.324565	88.936900	-7.180547	2.247711	137.000893	-66.041256	75.450401	76.998008	56.515420	-10.215777	15.732839
